<?xml version="1.0" encoding="UTF-8" standalone="no"?>
<svg width="297px" height="338px" viewBox="0 0 297 338" version="1.1" xmlns="http://www.w3.org/2000/svg" xmlns:xlink="http://www.w3.org/1999/xlink" xmlns:sketch="http://www.bohemiancoding.com/sketch/ns">
    <!-- Generator: Sketch 3.5.1 (25234) - http://www.bohemiancoding.com/sketch -->
    <title>silver_doe</title>
    <desc>Created with Sketch.</desc>
    <defs>
        <linearGradient x1="50%" y1="0%" x2="50%" y2="100%" id="linearGradient-1">
            <stop stop-color="#FBDA61" offset="0%"></stop>
            <stop stop-color="#F76B1C" offset="100%"></stop>
        </linearGradient>
    </defs>
    <g id="Page-1" stroke="none" stroke-width="1" fill="none" fill-rule="evenodd" sketch:type="MSPage">
        <g id="Sign-up" sketch:type="MSArtboardGroup" transform="translate(-492.000000, -151.000000)" fill="url(#linearGradient-1)">
            <g id="Group" sketch:type="MSLayerGroup" transform="translate(398.000000, 151.000000)">
                <path d="M224.34718,330.708668 C221.10149,327.192367 218.273407,322.510935 216.351334,317.715438 C210.887692,304.083862 212.096822,279.963763 208.270486,266.353988 C202.909652,247.286208 196.270346,234.307406 195.060433,233.720947 C186.740235,229.688049 177.706585,226.000612 171.03296,221.889221 C157.647512,213.642907 154.81635,199.762545 154.60513,198.636688 C154.310065,197.063915 152.077172,191.200525 153.682896,190.078826 C155.510412,188.802193 161.476348,192.430259 166.124696,193.54599 C170.35364,194.561052 174.924025,192.765837 179.111298,194.915115 C191.803272,201.429755 200.271645,213.600839 200.271645,212.63507 C200.271645,199.045929 190.734712,192.114641 186.740235,190.078826 C164.815827,178.904892 145.543304,166.191973 131.723428,154.950851 C123.319995,148.115478 110.560858,124.981354 102.939878,101.67926 C96.352502,81.5375368 94.2851128,61.28272 94.003224,51.1707631 C93.8587984,45.9899094 98.5929516,51.0586932 102.939878,62.5448329 C107.349192,74.1958214 111.394974,92.2785222 114.514134,88.5930019 C116.209901,86.5893262 115.081673,81.1780506 114.514133,73.4758152 C113.966819,66.0480521 114.017884,56.4659171 113.533169,47.0197224 C112.454577,25.9999793 113.793121,4.03303694 120.40394,0.341948195 C127.919716,-3.85441429 120.31722,32.0097595 129.634777,29.3059963 C130.851256,28.9529993 132.725115,30.0188748 133.954468,29.3059957 C142.480375,24.3619787 150.712723,10.4136726 160.632065,8.40888977 C161.894534,8.15373402 166.892786,5.82785256 168.703583,6.07413912 C170.800262,6.35930857 169.520279,9.3708918 167.552315,11.4973421 C163.61405,15.7527678 154.848211,21.3842356 146.651756,28.6190357 C141.522853,33.1461871 129.647812,49.9038899 128.834473,52.0666466 C123.565623,66.0770831 123.738599,101.638558 133.954468,123.519325 C138.091955,132.381165 144.166566,139.357066 149.768978,143.660431 C152.783462,145.975938 162.07281,153.217358 164.039749,149.967438 C164.636844,148.980875 163.610454,143.415999 162.300987,135.472397 C159.970843,121.337071 159.256408,97.5802768 157.216518,78.6546402 C155.255278,60.4586904 151.809539,46.8596855 157.216518,44.151638 C160.490791,42.5117418 161.494271,56.2067424 164.975876,54.6867676 C167.26737,53.6863629 170.336847,52.7147581 171.921669,50.4871788 C175.459142,45.5150121 176.801259,37.9630207 182.449768,35.9315033 C183.535154,35.5411382 188.930652,34.4622071 186.740234,40.9998627 C184.435288,47.879348 174.882611,58.4637937 171.032959,66.3307648 C169.488046,69.487878 168.523401,73.214344 169.33448,75.3991852 C170.128072,77.5369193 172.678373,78.1683734 172.953568,78.0780869 C176.170922,77.0225293 177.86683,73.4481006 180.070847,69.1572266 C184.225121,61.0695057 188.359589,50.2891166 195.060432,47.997364 C195.815283,47.739198 200.74617,45.9491365 201.63958,47.997364 C202.447954,49.8506399 195.948236,57.8066157 195.658096,60.4454727 C195.35766,63.1779816 201.257905,60.5606786 201.63958,60.4454727 C204.617696,59.5465501 209.190346,58.1076451 212.39463,58.4514732 C212.463103,58.4588205 217.372436,58.8659895 216.351334,61.4691963 C215.825011,62.8110065 210.724535,65.7332603 208.860115,67.3946457 C204.393574,71.3747823 196.048379,75.2520948 189.678688,81.52491 C182.406092,88.6868984 177.216355,98.5906415 174.750916,108.708809 C170.52867,126.03691 174.364135,149.372074 181.47438,161.508072 C185.38714,168.186497 191.243908,170.192187 195.060432,168.94606 C196.37984,168.515263 198.513537,167.840032 200.271645,166.301346 C203.258524,163.687245 206.038831,159.337342 208.270485,154.950851 C213.812414,144.057755 217.090397,130.082738 225.249527,124.206291 C226.255356,123.481863 229.683212,124.314112 229.464798,128.406509 C229.289307,131.69466 225.763015,137.575277 224.281326,142.751587 C221.57525,152.205319 214.788718,164.100997 216.351334,173.297745 C216.870575,176.353732 220.121946,182.145699 225.249527,185.398087 C231.754827,189.524351 240.378815,190.80011 240.378815,190.80011 L240.378815,191.002906 C242.816552,190.937576 247.003224,190.341948 247.003224,190.341948 L247.003224,190.537801 C250.097349,189.807042 255.035178,188.338944 259.132512,185.740035 C264.260093,182.487647 267.511464,176.69568 268.030705,173.639693 C269.59332,164.442945 262.806789,152.547268 260.100712,143.093535 C258.619024,137.917225 255.092731,132.036608 254.917241,128.748458 C254.698827,124.65606 258.126682,123.823811 259.132512,124.548239 C267.291642,130.424686 270.569624,144.399704 276.111554,155.2928 C278.343208,159.67929 281.123515,164.029193 284.110394,166.643294 C285.868501,168.18198 288.002199,168.857211 289.321606,169.288008 C293.138131,170.534135 298.994899,168.528445 302.907658,161.85002 C310.017903,149.714022 313.853368,126.378858 309.631123,109.050757 C307.165684,98.9325897 301.975947,89.0288466 294.703351,81.8668582 C288.33366,75.594043 279.988464,71.7167305 275.521924,67.7365939 C273.657504,66.0752084 268.557027,63.1529547 268.030705,61.8111445 C267.009603,59.2079377 271.918936,58.8007687 271.987408,58.7934214 C275.191692,58.4495933 279.764343,59.8884983 282.742459,60.7874209 C283.124134,60.9026268 289.024379,63.5199298 288.723942,60.7874209 C288.433803,58.1485639 281.934085,50.1925881 282.742459,48.3393122 C283.635869,46.2910847 288.566756,48.0811462 289.321606,48.3393122 C296.02245,50.6310647 300.156917,61.4114539 304.311192,69.4991748 C306.515209,73.7900488 308.211116,77.3644775 311.428471,78.420035 C311.703666,78.5103216 314.253967,77.8788675 315.047558,75.7411334 C315.858637,73.5562922 314.893993,69.8298262 313.34908,66.672713 C309.499428,58.8057419 299.94675,48.2212962 297.641804,41.3418109 C295.451387,34.8041553 300.846885,35.8830864 301.932271,36.2734515 C307.580779,38.3049689 308.922897,45.8569603 312.46037,50.829127 C314.045192,53.0567063 317.114668,54.0283111 319.406163,55.0287158 C322.887768,56.5486906 323.891248,42.8536899 327.16552,44.4935862 C332.5725,47.2016337 329.126761,60.8006386 327.16552,78.9965884 C325.125631,97.922225 324.411196,121.679019 322.081051,135.814345 C320.771584,143.757947 319.745195,149.322823 320.34229,150.309386 C322.309229,153.559306 331.598577,146.317886 334.613061,144.002379 C340.215473,139.699014 346.290084,132.723113 350.427571,123.861273 C360.64344,101.980506 360.816416,66.4190313 355.547566,52.4085948 C354.734227,50.2458381 342.859186,33.4881353 337.730282,28.9609839 C329.533827,21.7261838 320.767988,16.094716 316.829724,11.8392903 C314.86176,9.71283999 313.581777,6.70125677 315.678456,6.41608731 C317.489252,6.16980076 322.487504,8.49568222 323.749974,8.75083797 C333.669316,10.7556208 341.901663,24.7039269 350.427571,29.6479439 C351.656924,30.360823 353.530783,29.2949475 354.747262,29.6479445 C364.064819,32.3517077 356.462323,-3.5124661 363.978098,0.683896391 C370.588918,4.37498513 371.927462,26.3419274 370.84887,47.3616705 C370.364155,56.8078653 370.41522,66.3900003 369.867905,73.8177634 C369.300366,81.5199988 368.172138,86.9312744 369.867905,88.9349501 C372.987064,92.6204704 377.032846,74.5377696 381.44216,62.8867811 C385.789087,51.4006414 390.52324,46.3318576 390.378815,51.5127113 C390.096926,61.6246682 388.029537,81.879485 381.44216,102.021208 C373.821181,125.323302 361.062043,148.457427 352.658611,155.292799 C338.838734,166.533921 319.566211,179.24684 297.641804,190.420775 C293.647327,192.456589 284.110393,199.387877 284.110393,212.977019 C284.110393,213.942787 292.578767,201.771703 305.27074,195.257063 C309.458013,193.107785 314.028398,194.903 318.257343,193.887938 C322.905691,192.772207 328.871627,189.144141 330.699142,190.420775 C332.304866,191.542473 330.071973,197.405864 329.776909,198.978636 C329.565689,200.104493 326.734526,213.984855 313.349079,222.231169 C306.675453,226.34256 297.641804,230.029997 289.321605,234.062895 C288.111693,234.649354 281.472387,247.628156 276.111553,266.695936 C272.285217,280.305711 273.494347,304.42581 268.030704,318.057387 C266.355655,322.236569 263.992511,326.329122 261.264531,329.639375 C260.110066,332.044037 257.662404,334.128326 254.392719,335.614368 C254.315896,335.655842 254.239002,335.696503 254.162044,335.736342 C254.129697,335.753086 254.064446,335.77487 253.970368,335.801026 C250.751519,337.184019 246.78734,338 242.5,338 C234.249347,338 227.195493,334.978094 224.34718,330.708668 Z" id="silver_doe" sketch:type="MSShapeGroup"></path>
            </g>
        </g>
    </g>
</svg>